<svg fill="#04A2DB" xmlns="http://www.w3.org/2000/svg" viewBox="0 0 100 100"><path d="M98.4 22.1c-.2-1-1.1-1.8-2.2-1.8H68.6v-12c0-1.2-1-2.3-2.3-2.3H33.8c-1.2 0-2.3 1-2.3 2.3v12.1H4c-1.2 0-2.2 1-2.2 2.2v69.1C1.7 93 2.7 94 4 94h92.2c1.2 0 2.2-1 2.2-2.2V22.6c.1-.1 0-.3 0-.5zm-62.3-1.7v-9.8h28v9.8h-28zM44.2 72H56c1.2 0 2.2-1 2.2-2.2v-4.6c8.5-.6 24.3-3.1 35.7-12.1v36.3H6.2V53.2c11.4 9 27.2 11.4 35.7 12.1v4.5c0 1.2 1 2.2 2.3 2.2zm9.6-18.9v14.4h-7.3V53.1h7.3zm30.2 1c-7.2 3.6-15.9 5.9-25.8 6.6v-9.9c0-1.2-1-2.2-2.2-2.2H43.9c-1.1.2-1.9 1.1-1.9 2.2v9.9c-9.8-.8-18.5-3-25.7-6.6-5.7-2.9-8.9-5.8-10-7V24.8H94v22.3c-1.1 1.2-4.3 4.1-10 7z"/></svg>