<svg fill="#FFF" xmlns="http://www.w3.org/2000/svg" viewBox="0 0 33 35"><path d="M22.449 12.103l-.956.968a10.013 10.013 0 0 1 2.2 6.285 10 10 0 0 1-4.451 8.346l1.175 2.924a1.002 1.002 0 0 1-.54 1.3.98.98 0 0 1-1.284-.548l-1.106-2.751a9.71 9.71 0 0 1-3.64.704 9.709 9.709 0 0 1-3.694-.725L8.828 31.43a.98.98 0 0 1-1.312.473 1.003 1.003 0 0 1-.467-1.329l1.36-2.9A10 10 0 0 1 4 19.356c0-5.509 4.408-9.975 9.847-9.975a9.73 9.73 0 0 1 6.259 2.275l.92-.932c-.755-1.328-.576-3.034.543-4.153l4.525-4.526 1.077 3.862 3.86 1.076-4.525 4.525c-1.092 1.093-2.745 1.289-4.057.595zm-3.744.972a7.78 7.78 0 0 0-4.858-1.699c-4.35 0-7.878 3.573-7.878 7.98s3.527 7.98 7.878 7.98c4.35 0 7.877-3.573 7.877-7.98a8.012 8.012 0 0 0-1.633-4.864l-1.408 1.426a6.01 6.01 0 0 1 1.071 3.438c0 3.306-2.645 5.985-5.907 5.985-3.263 0-5.908-2.68-5.908-5.985s2.645-5.985 5.908-5.985a5.83 5.83 0 0 1 3.452 1.128l1.406-1.424zm-2.826 2.863a3.882 3.882 0 0 0-2.032-.572c-2.176 0-3.94 1.787-3.94 3.99 0 2.204 1.764 3.99 3.94 3.99 2.175 0 3.938-1.786 3.938-3.99 0-.726-.192-1.408-.527-1.995L15.76 18.88c.037.153.057.312.057.476 0 1.102-.882 1.995-1.97 1.995-1.087 0-1.969-.893-1.969-1.995s.882-1.995 1.97-1.995c.19 0 .375.028.549.079l1.483-1.502zm7.1-7.95a1.487 1.487 0 0 0 .014 2.103c.584.584 1.526.59 2.102.013l2.127-2.126-1.655-.461-.461-1.655-2.127 2.126z" fill="#FFF" fill-rule="nonzero"/></svg>