<svg version="1.1" id="Layer_1" xmlns="http://www.w3.org/2000/svg" x="0" y="0" viewBox="0 0 90.4 82.6" xml:space="preserve"><style>.st0{fill:#04a2db}</style><path class="st0" d="M52.7 56.2c.9 0 1.7-.4 2.3-1.2 1-1.3.7-3.1-.6-4.1l-12.1-9V20c0-1.6-1.3-2.9-2.9-2.9s-2.9 1.3-2.9 2.9v23.3c0 .9.4 1.8 1.2 2.3l13.3 10c.4.4 1 .6 1.7.6z"/><path class="st0" d="M85.4 32.6l-3.2 3.2C79.5 15.6 62.2 0 41.3 0 18.5 0 0 18.5 0 41.3s18.5 41.3 41.3 41.3c12.9 0 24.8-5.9 32.7-16.1 1-1.3.7-3.1-.5-4.1-1.3-1-3.1-.7-4.1.5-6.8 8.8-17 13.9-28.1 13.9-19.6 0-35.5-15.9-35.5-35.5S21.7 5.8 41.3 5.8c18 0 32.9 13.5 35.2 30.9l-4.2-4.1c-1.1-1.1-3-1.1-4.1 0s-1.1 3 0 4.1l8.6 8.6c.5.5 1.3.8 2.1.8s1.5-.3 2.1-.8l8.6-8.6c1.1-1.1 1.1-3 0-4.1-1.2-1.2-3-1.2-4.2 0z"/><circle class="st0" cx="41.3" cy="11" r="2.1"/><circle class="st0" cx="41.3" cy="71.6" r="2.1"/><circle class="st0" cx="11" cy="41.3" r="2.1"/></svg>