<svg version="1.1" id="Layer_1" xmlns="http://www.w3.org/2000/svg" x="0" y="0" viewBox="0 0 48 48" xml:space="preserve"><style>.st0{fill:#04a2db}</style><path class="st0" d="M43.1 0H4.9C2.2 0 0 2.2 0 4.9V43.2C0 45.8 2.2 48 4.9 48h38.3c2.7 0 4.9-2.2 4.9-4.9V4.9C48 2.2 45.8 0 43.1 0zM46 43.1c0 1.6-1.3 2.9-2.9 2.9H4.9C3.3 46 2 44.7 2 43.1V10.6h44v32.5zM2 8.6V4.9C2 3.3 3.3 2 4.9 2h38.3C44.7 2 46 3.3 46 4.9v3.7H2z"/><path class="st0" d="M5.4 4.3h2v2h-2zM9.5 4.3h2v2h-2zM13.7 4.3h2v2h-2zM18.7 4.3h23.9v2H18.7zM5.4 13.2h3.5v2H5.4zM12.2 13.2h3.5v2h-3.5zM18.9 13.2h3.5v2h-3.5zM25.7 13.2h3.5v2h-3.5zM32.9 38.9l7.6-7.6-7.6-7.6-1.4 1.4 6.2 6.2-6.2 6.2zM14.4 23.7l-7.6 7.6 7.6 7.6 1.5-1.4-6.2-6.2 6.2-6.2z"/><path transform="rotate(-67.22 22.725 31.275)" class="st0" d="M11.8 30.3h21.9v2H11.8z"/></svg>