<svg version="1.1" id="Layer_1" xmlns="http://www.w3.org/2000/svg" x="0" y="0" viewBox="0 0 943.7 840.1" xml:space="preserve"><style>.st0{fill:#04a2db}</style><path class="st0" d="M689.9 446l-73.5-73.5-117.1-117.1-26.7-26.7v56.6l73.5-73.5L663.2 94.7 689.9 68c14.8-14.8 15.9-42 0-56.6-16-14.7-40.8-15.8-56.6 0l-73.5 73.5L442.7 202 416 228.7c-15.3 15.3-15.3 41.3 0 56.6l73.5 73.5 117.1 117.1 26.7 26.7c14.8 14.8 42 15.9 56.6 0 14.6-16 15.8-40.7 0-56.6z"/><path class="st0" d="M903.6 217H500.8c-18.6 0-37.2-.3-55.7 0h-.8c-20.9 0-41 18.4-40 40 1 21.7 17.6 40 40 40h402.8c18.6 0 37.2.3 55.7 0h.8c20.9 0 41-18.4 40-40-1-21.7-17.6-40-40-40zM250.7 394l73.5 73.5 117.1 117.1 26.7 26.7v-56.6l-73.5 73.5-117.1 117.1-26.7 26.7c-14.8 14.8-15.9 42 0 56.6 16 14.7 40.8 15.8 56.6 0l73.5-73.5L497.9 638l26.7-26.7c15.3-15.3 15.3-41.3 0-56.6l-73.5-73.5L334 364.1l-26.7-26.7c-14.8-14.8-42-15.9-56.6 0-14.7 16-15.9 40.7 0 56.6z"/><path class="st0" d="M40 623H440.1c18.4 0 36.9.3 55.3 0h.8c20.9 0 41-18.4 40-40-1-21.7-17.6-40-40-40H96.1c-18.4 0-36.9-.3-55.3 0H40c-20.9 0-41 18.4-40 40 1 21.7 17.6 40 40 40z"/></svg>