<svg version="1.1" id="Layer_1" xmlns="http://www.w3.org/2000/svg" x="0" y="0" viewBox="0 0 79.4 90" xml:space="preserve"><style>.st0{fill:#04a2db}</style><path class="st0" d="M16 39.1c-.7 7.5 2.1 14.7 7.6 19.8 3.1 2.9 4.9 7 4.9 11.1v9.5c0 2.9 2.3 5.3 5.2 5.5.7 2.5 3.2 4.9 6.3 4.9s5.6-2.4 6.3-4.9c2.9-.2 5.2-2.6 5.2-5.5V70c0-4.2 1.8-8.2 4.9-11.1 5.5-5.1 8.3-12.3 7.6-19.8-1-11.6-10.6-21-22.2-21.8-1.1-.1-2.3-.1-3.4 0C26.6 18.1 17 27.5 16 39.1zm32.4 38.5H31.5v-1.5h16.9v1.5zM39.9 87c-1.3 0-2.4-.9-3-1.9H43c-.7 1-1.8 1.9-3.1 1.9zm5.9-4.9H34c-1 0-1.9-.6-2.3-1.5h16.5c-.4.9-1.3 1.5-2.4 1.5zm2.6-9H31.5v-1.5h16.9v1.5zM35.3 46.4h-2c-1.1 0-2-.9-2-2s.9-2 2-2 2 .9 2 2v2zm3 3h3.3v19.1h-3.3V49.4zm.1-29.1c1-.1 2-.1 3 0 10.2.7 18.6 8.9 19.5 19 .6 6.6-1.8 12.9-6.6 17.4-3.4 3.1-5.4 7.4-5.8 11.8h-3.9V49.4h2c2.7 0 5-2.2 5-5s-2.2-5-5-5-5 2.2-5 5v2h-3.3v-2c0-2.7-2.2-5-5-5s-5 2.2-5 5 2.2 5 5 5h2v19.1h-3.9C31 64 29 59.8 25.6 56.7c-4.8-4.5-7.2-10.8-6.6-17.4.9-10.1 9.2-18.3 19.4-19zm6.1 26.1v-2c0-1.1.9-2 2-2s2 .9 2 2-.9 2-2 2h-2zM38.3 1.6v7c0 .9.7 1.6 1.6 1.6.9 0 1.6-.7 1.6-1.6v-7c0-.9-.7-1.6-1.6-1.6s-1.6.7-1.6 1.6zM64.3 8.1c-.7-.5-1.7-.4-2.2.4L58 14.1c-.5.7-.4 1.7.4 2.2s1.7.4 2.2-.4l4.1-5.6c.5-.7.3-1.7-.4-2.2zM71.6 33.1l6.6-2.2c.8-.3 1.3-1.2 1-2s-1.2-1.3-2-1l-6.6 2.2c-.8.3-1.3 1.2-1 2 .3.8 1.2 1.3 2 1zM70.5 53.5l6.6 2.2c.8.3 1.7-.2 2-1 .3-.8-.2-1.7-1-2l-6.6-2.2c-.8-.3-1.7.2-2 1-.3.8.2 1.7 1 2zM60.2 67.5c-.5-.7-1.5-.9-2.2-.4s-.9 1.5-.4 2.2l4.1 5.6c.5.7 1.5.9 2.2.4.7-.5.9-1.5.4-2.2l-4.1-5.6zM15.1 75.1c.7.5 1.7.4 2.2-.4l4.1-5.6c.5-.7.4-1.7-.4-2.2s-1.7-.4-2.2.4l-4.1 5.6c-.5.7-.3 1.7.4 2.2zM2.1 55.2L8.7 53c.8-.3 1.3-1.2 1-2-.3-.8-1.2-1.3-2-1l-6.6 2.2c-.8.3-1.3 1.2-1 2 .2.8 1.1 1.3 2 1zM1.2 30.5l6.6 2.2c.8.3 1.7-.2 2-1 .3-.8-.2-1.7-1-2l-6.6-2.2c-.8-.3-1.7.2-2 1-.2.8.2 1.7 1 2zM17.7 8.2c-.5-.7-1.5-.9-2.2-.4-.7.5-.9 1.5-.4 2.2l4.1 5.6c.5.7 1.5.9 2.2.4.7-.5.9-1.5.4-2.2l-4.1-5.6z"/><path class="st0" d="M39.9 25.7c2.8 0 5.6.8 7.9 2.3.2.2.5.2.8.2.5 0 1-.2 1.3-.7.4-.7.2-1.6-.5-2.1-2.9-1.8-6.2-2.8-9.5-2.8-.8 0-1.5.7-1.5 1.5s.7 1.6 1.5 1.6zM53.7 35c.2.6.8.9 1.4.9.2 0 .4 0 .6-.1.8-.3 1.1-1.2.8-2-.6-1.4-1.4-2.8-2.3-4-.5-.7-1.4-.8-2.1-.3-.7.5-.8 1.4-.3 2.1.8 1 1.4 2.2 1.9 3.4z"/></svg>