<svg version="1.1" id="Layer_1" xmlns="http://www.w3.org/2000/svg" x="0" y="0" viewBox="0 0 62.4 20.8" xml:space="preserve"><style>.st0{fill:#fff}</style><path class="st0" d="M15.8 11.7c.6-.5.8-1.5.4-2.2 0 0 0-.1-.1-.1-.3-.4-.7-.7-.9-1.1-.3-.5-.3-1.1 0-1.6.2-.4.6-.7.7-1.1.2-.5 0-1-.3-1.3-.8-.8-2.3-.1-2.2 1.1.1.5.5 1 .7 1.5.2.5.1 1.1-.1 1.5-.2.4-.7.7-.9 1.2-.4.7-.2 1.7.4 2.2s1.6.4 2.3-.1z"/><path class="st0" d="M16.5 14.4c-1.1-.8-2.6-.9-3.8-1.4-1.6-.7-2.8-2.4-3-4.2-.1-.9.1-1.8 0-2.6-.2-1.3-.9-2.6-2-3.3-.5-.3-1-.6-1.5-.7C3.2 1.4 0 3.6 0 6.8c0 2.2 1.7 4.3 3.8 4.7 1 .2 2.1.1 3.2.3 1.6.3 3 1.6 3.5 3.1.4 1.3.3 2.7 1 3.9.7 1.3 2.1 2 3.5 1.8 1.4-.2 2.6-1.3 3-2.6s-.3-2.8-1.5-3.6z"/><path class="st0" d="M4.6 14.6c-1.7 0-3.1 1.4-3.1 3.1s1.4 3.1 3.1 3.1 3.1-1.4 3.1-3.1-1.4-3.1-3.1-3.1zM25.3 15.1V9.6h2.5V7.8h-2.5V4.2h-2.9v3.6h-1.3v1.8h1.3v5.8c0 1.1.3 2 1 2.8.7.8 1.6 1.2 2.7 1.2.7 0 1.4-.1 2.1-.4l-.6-2c-1.5.3-2.3-.3-2.3-1.9zM37.4 9.3c-1-1.1-2.2-1.6-3.4-1.6-1.5 0-2.7.5-3.7 1.6s-1.5 2.5-1.5 4.1c0 1.7.5 3.1 1.5 4.2s2.2 1.6 3.8 1.6c1.2 0 2.3-.5 3.4-1.5v1.5H40V8.1h-2.5v1.2zm-1 6.8c-.6.6-1.3 1-2.3 1-.9 0-1.6-.3-2.2-1-.6-.7-.8-1.5-.8-2.6 0-1 .3-1.8.9-2.5.6-.7 1.3-1 2.2-1 .9 0 1.7.3 2.3 1 .6.7.9 1.5.9 2.5-.1 1.1-.4 1.9-1 2.6zM42 0h2.5v19.3H42zM47.9 1.9c-.5 0-.8.2-1.2.5-.3.3-.5.7-.5 1.1 0 .5.2.9.5 1.2.3.3.7.5 1.2.5s.8-.2 1.2-.5c.3-.3.5-.7.5-1.2s-.2-.8-.5-1.2c-.4-.3-.7-.4-1.2-.4zM46.6 8.1h2.5v11.3h-2.5zM60.7 9.4c-1.1-1.1-2.5-1.7-4.2-1.7-1.6 0-3 .6-4.1 1.7-1.1 1.1-1.7 2.5-1.7 4 0 1.7.6 3.1 1.7 4.2s2.5 1.7 4.1 1.7c1.7 0 3.1-.6 4.2-1.7s1.7-2.5 1.7-4.1c0-1.6-.6-3-1.7-4.1zm-1.8 6.7c-.6.6-1.4 1-2.4 1s-1.8-.3-2.4-1c-.6-.6-.9-1.5-.9-2.6 0-1 .3-1.9.9-2.5.6-.6 1.4-1 2.4-1s1.8.3 2.4 1c.6.6.9 1.5.9 2.6 0 1-.3 1.9-.9 2.5z"/></svg>