<svg version="1.1" id="Layer_1" xmlns="http://www.w3.org/2000/svg" x="0" y="0" viewBox="0 0 55.9 55.9" xml:space="preserve"><style>.st0{fill:none}.st1{fill:#04a2db}</style><path transform="rotate(-45.001 21.697 14.435)" class="st0" d="M17.7 9.4h8v10h-8z"/><path class="st0" d="M27.4 41.3c-3.5 3.5-9.2 3.5-12.7 0s-3.5-9.2 0-12.7l6.4-6.4-7.1-7.1-6.4 6.4C.2 28.9.2 41 7.6 48.4s19.5 7.4 26.9 0l6.4-6.4-7.1-7.1-6.4 6.4z"/><path transform="rotate(-45.001 41.496 34.235)" class="st0" d="M37.5 29.2h8v10h-8z"/><path class="st1" d="M50 34.2l-8.5-8.5c-.4-.4-1-.4-1.4 0L25.9 39.9c-2.7 2.7-7.2 2.7-9.9 0s-2.7-7.2 0-9.9l14.1-14.1c.4-.4.4-1 0-1.4L21.6 6c-.4-.4-1-.4-1.4 0L6.1 20.1C-2 28.3-2 41.6 6.1 49.8c8.2 8.2 21.5 8.2 29.7 0L50 35.6c.4-.3.4-1 0-1.4zM21 8.1l7.1 7.1-5.7 5.7-7.1-7.1L21 8.1zm13.4 40.3c-7.4 7.4-19.5 7.4-26.9 0s-7.4-19.5 0-26.9l6.4-6.4 7.1 7.1-6.4 6.4c-3.5 3.5-3.5 9.2 0 12.7s9.2 3.5 12.7 0l6.4-6.4 7.1 7.1-6.4 6.4zm7.8-7.8l-7.1-7.1 5.7-5.7 7.1 7.1-5.7 5.7zM23.1 4.5c.4.4 1 .4 1.4 0l2.8-2.8c.4-.4.4-1 0-1.4s-1-.4-1.4 0l-2.8 2.8c-.4.4-.4 1 0 1.4zM27.4 8.8c.4.4 1 .4 1.4 0l5.7-5.7c.4-.4.4-1 0-1.4s-1-.4-1.4 0l-5.7 5.7c-.4.4-.4 1 0 1.4zM31.6 13c.4.4 1 .4 1.4 0l2.8-2.8c.4-.4.4-1 0-1.4-.4-.4-1-.4-1.4 0l-2.8 2.8c-.4.4-.4 1 0 1.4zM42.9 24.3c.4.4 1 .4 1.4 0l2.8-2.8c.4-.4.4-1 0-1.4-.4-.4-1-.4-1.4 0l-2.8 2.8c-.4.4-.4 1 0 1.4zM47.2 28.6c.4.4 1 .4 1.4 0l5.7-5.7c.4-.4.4-1 0-1.4-.4-.4-1-.4-1.4 0l-5.7 5.7c-.4.4-.4 1 0 1.4zM55.6 28.6c-.4-.4-1-.4-1.4 0l-2.8 2.8c-.4.4-.4 1 0 1.4.4.4 1 .4 1.4 0l2.8-2.8c.4-.4.4-1 0-1.4z"/></svg>