<svg version="1.1" id="Layer_1" xmlns="http://www.w3.org/2000/svg" x="0" y="0" viewBox="0 0 930.3 1096.1" xml:space="preserve"><style>.st0{fill:#04a2db}</style><path class="st0" d="M449.7 14.1c.2-8 7.8-14.6 15.7-14 7.3.3 13.8 6.6 14.1 13.9.2 9.2 0 18.4.1 27.6 86.4 26 172.8 52 259.1 78 27 7.9 53.9 16.5 80.9 24.1 28.5.3 57.1 0 85.7.1 5.1.1 10.7-.8 15.3 2.1 5.2 3 7.9 9.3 7.7 15.1-.1 18.4.1 36.7-.1 55.1-.2 8-7.9 14.9-15.9 14-8.5-1.7-17.1-.7-25.7-.9v540.6c9.9.1 19.8-.2 29.7.1 8.1.4 14.1 8.3 14 16.2v55c.3 7.3-5.6 14.1-12.8 15-3.7.6-7.4-1-11.1-.9h-94.1c-5.2.3-10.4-2.2-13.3-6.6-4.2-5.9-3.1-14.8 2.4-19.6 3-2.7 7-4 11-3.8h88v-25.4H32v24.4h681.4c8-.3 15.2 6.9 15 14.9.3 8.1-7 15.4-15 15.1H477.2v99.9c.3 2-.9 4.8 1.1 6.1 48.1 30.2 96.3 60.3 144.5 90.5 5 2.9 8.2 8.7 7.5 14.5-.6 7.5-7.5 13.7-14.9 13.5-4.7.2-8.7-2.7-12.4-5.1-41.9-26.2-83.8-52.5-125.8-78.7v86.2c.2 7.6-6.2 14.6-13.9 15-6 .6-12.1-2.9-14.6-8.3-1.9-3.6-1.5-7.8-1.5-11.7v-83.4c-42.3 29.1-84.5 58.3-126.8 87.5-3.5 2.6-7.8 4.4-12.3 3.7-8-.8-14.3-8.9-13-16.8.5-5.1 4-9.2 8.3-11.7 43.5-29.9 86.8-59.9 130.2-89.8 4.3-2.9 8.3-6.4 13.4-7.6V854.2H20.2c-5 .1-9.9-2.4-12.7-6.5-2.2-2.9-2.1-6.8-3.9-10-1.3-2.3-1.9-5-1.8-7.6V786c-.2-5.2 2.6-10.5 7.1-13.1 4-2.3 8.7-3.2 13.3-3.1h27.3V228.1H18.3c-5 .1-9.9-2.4-12.7-6.5-2.2-3-2.1-6.9-3.9-10C-.4 207.7 0 203.2 0 199v-39c-.2-5.5 2.9-11 7.7-13.5 4.2-2.2 9-2.8 13.6-2.7h89c2.9.1 5.1-2.1 7.8-2.8C228.6 107.4 339 73.9 449.5 40.2c.2-8.7.1-17.4.2-26.1M211.8 143.8h237.9V71.6c-79.3 24-158.6 48.3-237.9 72.2m267.8-71v71h236.2c-78.8-23.5-157.4-47.4-236.2-71M30 173.7v24.4h674.5c4.5.1 9.2-.6 13.4 1.4 5.8 2.6 9.4 9.2 8.5 15.5-.8 7.3-7.6 13.3-15 13H79.6v541.7h777.1c.1-180.2 0-360.5 0-540.7h-47.3c-4.7.1-9.3-2.3-12.1-6.1-3.4-4.6-3.9-11.1-1.1-16.1 2.5-4.7 7.7-7.8 13-7.7h89.1v-25.4H30z"/><path class="st0" d="M750.9 197.6c5.4-1.1 11.1-.4 16.6-.6 7.8-.4 15.1 6.2 15.4 14 .8 7.8-5.6 15.3-13.3 15.8-5 .2-10.1.1-15.1.1-7.4-.1-14-6.6-14.2-14-.7-6.8 4-13.5 10.6-15.3zM157.5 281c3.6-6.6 12.4-9.6 19.2-6.3 5.5 2.4 9.1 8.3 8.8 14.3v389.2h597.9c6.9-.3 13.5 4.9 14.9 11.7 1.7 6.7-2 14.1-8.3 16.9-2.7 1.4-5.8 1.4-8.7 1.4h-23.8c.2 5.2 0 11-4 14.9-5.6 6.4-16.6 6.4-22.2-.1-3.8-3.9-4.1-9.7-3.9-14.8h-147c.1 5.3.5 11.4-3.4 15.6-5.5 7.2-17.4 7.3-23 .2-4-4.3-3.7-10.4-3.6-15.9H410c-.4 6.8 1.5 14.7-3.4 20.3-5.5 7.2-17.5 7.3-23.1.1-5-5.6-3.1-13.6-3.5-20.4H261c-.2 6.5 1.3 13.9-3.5 19.2-5.7 7.2-17.9 7-23.3-.4-4.4-5.3-2.9-12.5-3.2-18.8h-62.9c-8.1.3-15.3-7.1-15-15.1-.2-3.5 2.1-6.5 2.1-10V294.9c.5-4.6-.2-9.7 2.3-13.9z"/><path class="st0" d="M377.7 394.3c10.2-4.8 22.6-4.6 32.6.8 13.4 6.8 21.1 22.3 19.5 37.1 36.1 18.4 72.2 36.6 108.2 55 2.1 1.1 4.1 2.2 6.3 3 1.8 0 3.4-1.3 5-2 13.4-6.9 30.8-3.6 41.3 6.9 37.1-12.1 74.2-24.4 111.2-36.6.1-7.8 2.1-15.7 6.9-21.9 5.9-8.7 16-14.1 26.4-15.4 10-1 20.3 2.5 27.9 9.1 5.9 5.9 10.8 13.2 12 21.7 2.1 11.5-2.1 23.5-10 31.9-8.2 8.1-20.2 12.2-31.7 10.4-6.9-.7-12.9-4.3-18.5-8.2-37.8 12.2-75.5 24.8-113.2 37.2-.8 12.4-7.9 24.3-18.9 30.4-6.9 3.5-14.8 5.4-22.6 4.3-12.1-1.4-23.2-9.2-28.5-20.2-3.6-6.6-4.1-14.4-3.4-21.8-38-19.4-76-38.6-114-57.9-9 6.1-20.6 8.1-31.2 5.2-30.9 35.3-61.5 70.7-92.4 106 5.1 15.3-.9 33.9-14.8 42.5-8.4 5.8-19.2 7.2-29.1 5-9.2-2.6-17.7-8.2-22.6-16.6-8.9-14.2-6.4-34.6 6.3-45.7 10.2-10.2 26.6-12.9 39.7-7.3 29.9-34.3 59.8-68.7 89.7-103-5.3-10.7-5-23.9 1-34.3 4.3-6.7 9.9-12.4 16.9-15.6m13.9 26.9c-4.1 1-6.8 6-4.4 9.8 2.5 4.9 10.9 4.5 12.3-1.1 2.1-4.6-2.9-10.6-7.9-8.7m345.1 30.3c-5.2 1.2-6.4 9.2-1.8 11.8 3.2 2.5 8.6 1.2 10.1-2.6 2.6-5-3.1-11.6-8.3-9.2m-174.1 63.6c-4.2 1.3-6.2 7.1-3.2 10.5 3 4 10.1 2.9 11.7-1.9 2.3-4.9-3.3-11.2-8.5-8.6m-308.8 59.3c-3.3 1.3-5.7 5-4.4 8.5 1.4 5.7 10.7 6.4 12.7.7 2.6-4.9-3.1-11.3-8.3-9.2zM752.8 823.6c5.5-1.2 11.1-.5 16.6-.6 5.7-.2 11.3 3.1 13.8 8.2 3.3 6.4 1.3 15-4.7 19-5.9 4.3-13.5 2.3-20.2 2.8-6 .5-12.2-2.8-14.8-8.3-4.1-7.9.6-18.7 9.3-21.1z"/></svg>