<svg fill="#FFF" xmlns="http://www.w3.org/2000/svg" data-name="Layer 1" viewBox="0 0 100 100"><path d="M82.17 82.17a2.49 2.49 0 0 1-.32.26h6a2.5 2.5 0 0 1 0 5h-12a2.5 2.5 0 0 1-2.5-2.5v-12a2.5 2.5 0 0 1 5 0v6l.26-.28A40.5 40.5 0 0 0 50 9.5a2.5 2.5 0 0 1 0-5 45.5 45.5 0 0 1 32.17 77.67zM4.5 50A45.5 45.5 0 0 0 50 95.5a2.5 2.5 0 0 0 0-5 40.5 40.5 0 0 1-28.64-69.14c.08-.08.17-.18.26-.29v6a2.5 2.5 0 0 0 5 0v-12a2.5 2.5 0 0 0-2.5-2.5h-12a2.5 2.5 0 0 0 0 5h6a3.72 3.72 0 0 0-.31.26A45.2 45.2 0 0 0 4.5 50zm54.13-8.63a12.2 12.2 0 1 1-17.25 0 12.21 12.21 0 0 1 17.25 0zm-3.54 3.54a7.2 7.2 0 1 0 0 10.18 7.21 7.21 0 0 0 0-10.18zm12.21 22.4a24.68 24.68 0 0 1-2.59 2.25l.29 3.28a6.47 6.47 0 0 1-4.78 6.83L56 80.81a6.48 6.48 0 0 1-7.56-3.53l-1.39-3a24.24 24.24 0 0 1-6.61-1.77l-2.7 1.89a6.48 6.48 0 0 1-8.31-.72l-3.11-3.11a6.47 6.47 0 0 1-.72-8.31l1.89-2.7A24.24 24.24 0 0 1 25.71 53l-3-1.39A6.48 6.48 0 0 1 19.19 44l1.14-4.25A6.46 6.46 0 0 1 27.16 35l3.28.29a24.72 24.72 0 0 1 4.84-4.84L35 27.16a6.48 6.48 0 0 1 4.78-6.83L44 19.19a6.48 6.48 0 0 1 7.56 3.53l1.39 3a24.24 24.24 0 0 1 6.61 1.77l2.7-1.89a6.47 6.47 0 0 1 8.31.72l3.11 3.11a6.48 6.48 0 0 1 .72 8.31l-1.89 2.7A24.21 24.21 0 0 1 74.29 47l3 1.39A6.48 6.48 0 0 1 80.81 56l-1.14 4.25A6.46 6.46 0 0 1 72.84 65l-3.28-.29a24.69 24.69 0 0 1-2.26 2.6zm1.26-7.7l4.71.42a1.48 1.48 0 0 0 1.56-1.09L76 54.69a1.48 1.48 0 0 0-.83-1.69l-4.3-2a2.5 2.5 0 0 1-1.44-2.12 19.31 19.31 0 0 0-2-7.55 2.5 2.5 0 0 1 .19-2.56l2.72-3.88a1.48 1.48 0 0 0-.17-1.9L67 29.84a1.48 1.48 0 0 0-1.9-.17l-3.83 2.73a2.5 2.5 0 0 1-2.55.19 19.33 19.33 0 0 0-7.55-2A2.5 2.5 0 0 1 49 29.12l-2-4.3a1.48 1.48 0 0 0-1.69-.82l-4.25 1.14A1.48 1.48 0 0 0 40 26.72l.42 4.71a2.5 2.5 0 0 1-1.11 2.31 19.54 19.54 0 0 0-3 2.49 19.51 19.51 0 0 0-2.49 3 2.5 2.5 0 0 1-2.31 1.11L26.72 40a1.48 1.48 0 0 0-1.56 1.09L24 45.31a1.48 1.48 0 0 0 .83 1.69l4.3 2a2.5 2.5 0 0 1 1.44 2.12 19.33 19.33 0 0 0 2 7.55 2.5 2.5 0 0 1-.19 2.55l-2.72 3.88a1.48 1.48 0 0 0 .17 1.9L33 70.16a1.48 1.48 0 0 0 1.9.17l3.88-2.72a2.5 2.5 0 0 1 2.55-.19 19.33 19.33 0 0 0 7.55 2A2.5 2.5 0 0 1 51 70.88l2 4.3a1.48 1.48 0 0 0 1.73.81l4.25-1.14A1.48 1.48 0 0 0 60 73.28l-.42-4.71a2.5 2.5 0 0 1 1.11-2.31 19.67 19.67 0 0 0 5.54-5.54 2.5 2.5 0 0 1 2.34-1.11z"/></svg>