<svg fill="#04A2DB" xmlns="http://www.w3.org/2000/svg" viewBox="0 0 100 100"><path d="M56.341 20.765v8.957c0 1.16.6 2.198 1.605 2.779.99.57 2.227.566 3.209-.005a3.495 3.495 0 0 1 5.242 3.025 3.497 3.497 0 0 1-3.493 3.493 3.476 3.476 0 0 1-1.748-.469 3.219 3.219 0 0 0-3.211-.003 3.173 3.173 0 0 0-1.604 2.777v15.398h-9.78c-.089 0-.13-.023-.176-.1-.047-.076-.048-.123-.007-.205a7.359 7.359 0 0 0 .818-3.369c0-4.043-3.289-7.333-7.332-7.333a7.323 7.323 0 0 0-5.956 3.072 3.187 3.187 0 0 0-.956-3.703 4.27 4.27 0 0 1-1.243-1.629c-.465-1.06-.489-2.237-.069-3.315s1.235-1.928 2.295-2.394a4.301 4.301 0 0 1 1.737-.366A4.338 4.338 0 0 1 40 41.985a3.151 3.151 0 0 0 1.361 2.833c.92.645 2.096.761 3.129.309l11.701-5.138-7.396-16.844c-.037-.083-.031-.134.021-.206.059-.079.103-.082.191-.084a6.468 6.468 0 0 0 3.329-.508 6.5 6.5 0 0 0 3.334-8.556 6.496 6.496 0 0 0-8.556-3.335 6.51 6.51 0 0 0-2.626 2.107c-.059.079-.111.084-.188.083-.091-.01-.131-.039-.168-.123l-3.601-8.201L4.866 19.984 20.525 55.65l11.701-5.137a3.18 3.18 0 0 0 1.152-.879 7.285 7.285 0 0 0-.847 3.411c0 1.17.283 2.336.82 3.371.04.08.039.127-.007.203-.047.076-.088.1-.178.1H20.389V95.67h35.792v.006h38.953V20.765H56.341zm-25.32 27.001l-8.954 3.931L8.819 21.525 38.991 8.278l2.395 5.454a3.176 3.176 0 0 0 2.588 1.899 3.156 3.156 0 0 0 2.937-1.295 3.506 3.506 0 0 1 2.814-1.428 3.495 3.495 0 1 1-.383 6.967 3.16 3.16 0 0 0-2.938 1.286 3.17 3.17 0 0 0-.354 3.19l6.188 14.096-9.047 3.958c-.012 0-.048 0-.106-.042-.075-.053-.096-.096-.09-.184a7.338 7.338 0 0 0-7.322-7.803 7.26 7.26 0 0 0-2.943.62 7.281 7.281 0 0 0-3.884 4.05 7.278 7.278 0 0 0 .117 5.609 7.357 7.357 0 0 0 2.105 2.759c.069.057.088.101.076.188-.013.09-.04.128-.123.164zm28.32-6.445c0-.09.025-.134.104-.179s.128-.046.206-.001c.984.572 2.11.874 3.254.874 3.58 0 6.493-2.913 6.493-6.493s-2.913-6.493-6.493-6.493a6.504 6.504 0 0 0-3.256.874c-.074.043-.126.043-.203 0-.079-.046-.104-.09-.104-.181v-5.957h32.793v32.954H81.759a.174.174 0 0 1-.151-.092c-.047-.078-.049-.123-.012-.197a3.36 3.36 0 0 1 .233-.393 7.203 7.203 0 0 0 1.255-4.072c0-3.988-3.243-7.231-7.23-7.231s-7.231 3.243-7.231 7.231c0 1.459.434 2.867 1.256 4.072.091.133.168.26.23.389.039.08.037.125-.01.199-.041.066-.083.088-.151.094H59.341V41.321zM23.389 92.67V59.719h9.779a3.184 3.184 0 0 0 2.741-1.543 3.183 3.183 0 0 0 .106-3.141 4.337 4.337 0 0 1 3.849-6.323 4.337 4.337 0 0 1 3.851 6.323 3.184 3.184 0 0 0 .106 3.143 3.182 3.182 0 0 0 2.739 1.541h9.62v12.252a.21.21 0 0 1-.206.207h-.119c-.59 0-1.07-.148-1.558-.482a7.205 7.205 0 0 0-4.072-1.254 7.237 7.237 0 0 0-7.23 7.23c0 3.986 3.243 7.23 7.23 7.23 1.46 0 2.868-.434 4.072-1.256.487-.332.968-.48 1.558-.48h.119a.21.21 0 0 1 .206.207v9.297H23.389zm68.745.006H59.181v-9.303a3.21 3.21 0 0 0-3.206-3.207h-.119a5.58 5.58 0 0 0-3.249 1.004 4.235 4.235 0 0 1-6.611-3.498 4.233 4.233 0 0 1 6.611-3.498 5.58 5.58 0 0 0 3.249 1.004h.119a3.21 3.21 0 0 0 3.206-3.207V59.723h10.742a3.15 3.15 0 0 0 2.725-1.516 3.142 3.142 0 0 0 .15-3.109 6.074 6.074 0 0 0-.442-.752 4.213 4.213 0 0 1-.733-2.381c0-2.333 1.898-4.231 4.231-4.231a4.234 4.234 0 0 1 3.498 6.612c-.177.258-.32.504-.442.748a3.149 3.149 0 0 0 .149 3.113 3.15 3.15 0 0 0 2.725 1.516h10.351v32.953z"/></svg>