<svg version="1.1" id="Layer_1" xmlns="http://www.w3.org/2000/svg" x="0" y="0" viewBox="0 0 82.1 92.3" xml:space="preserve"><style>.st0{fill:#04a2db}</style><path class="st0" d="M60.2 47.7h7.5c.8 0 1.5-.7 1.5-1.5s-.7-1.5-1.5-1.5h-7.5c-.8 0-1.5.7-1.5 1.5s.7 1.5 1.5 1.5zM25.6 63.6h28.8c.8 0 1.5-.7 1.5-1.5s-.7-1.5-1.5-1.5H25.6c-.8 0-1.5.7-1.5 1.5 0 .9.7 1.5 1.5 1.5zM12.3 60.6H6.9c-.8 0-1.5.7-1.5 1.5s.7 1.5 1.5 1.5h5.4c.8 0 1.5-.7 1.5-1.5s-.7-1.5-1.5-1.5zM67.8 76.3H55.4c-.8 0-1.5.7-1.5 1.5s.7 1.5 1.5 1.5h12.3c.8 0 1.5-.7 1.5-1.5.1-.8-.6-1.5-1.4-1.5z"/><path class="st0" d="M80.6 84.1h-3.3c-2-4.7-2-8.8.2-12.7h3c.8 0 1.5-.7 1.5-1.5s-.7-1.5-1.5-1.5H64c-2-4.7-2-8.8.2-12.6h16.5c.8 0 1.5-.7 1.5-1.5s-.7-1.5-1.5-1.5h-3.2c-2.1-4.7-2.1-8.8-.1-12.7h3.2c.8 0 1.5-.7 1.5-1.5s-.7-1.5-1.5-1.5H55.7c4.2-4.5 7.7-13.7 7.7-17.3 0-5.2-4.1-9.5-9.2-9.9.3-.4.6-.8.8-1.2 1.6-2.5 1.6-5.7 0-8l-.4-.6-.7-.1c-2.8-.2-5.6 1.3-7.1 4-.3.5-.5 1.1-.7 1.7-1.3-1.6-3.2-3.2-5.7-4.6-.7-.4-1.6-.2-2 .6s-.2 1.6.6 2c4 2.2 6.1 4.7 6.5 7.3-.5-.1-1-.2-1.5-.4-1.1-.4-2.3-.6-3.5-.6-5.3 0-9.6 4.3-9.6 9.5 0 1.5 2.6 12.7 7.3 17.8H20.9c-4.1 0-7.5 3.4-7.5 7.5v3.7c0 1.7.6 3.2 1.5 4.5H7.5C3.4 53 0 56.4 0 60.5v3.7c0 4.1 3.4 7.5 7.5 7.5h7.4c-.9 1.3-1.5 2.8-1.5 4.5v3.7c0 4.1 3.4 7.5 7.5 7.5h3.6v3.8c0 .6.3 1.1.8 1.3.5.3 1.1.2 1.6-.2l3.6-2.7L34 92c.3.2.6.3.9.3.2 0 .5-.1.7-.2.5-.3.8-.8.8-1.3V87h44.2c.8 0 1.5-.7 1.5-1.5s-.6-1.4-1.5-1.4zM49.4 5.5c.8-1.4 2.1-2.3 3.5-2.5.6 1.3.4 2.9-.4 4.3S50.4 9.6 49 9.8c-.6-1.3-.4-2.9.4-4.3zm-9 7.4c.8 0 1.6.1 2.4.4 1.3.5 2.6.8 3.9.8h.1c1.3 0 2.7-.2 4-.8.8-.3 1.6-.5 2.5-.5 3.9 0 7 3.1 7 6.9 0 4.9-6.5 16.8-9.1 16.8-.4 0-.8 0-1.2-.1-1.1-.3-2.1-.4-3.1-.4s-2 .1-3.1.4c-.4.1-.8.1-1.2.1-4.6 0-9.1-14.9-9.1-17.3.3-3.4 3.3-6.3 6.9-6.3zm-11 40.6c-.5-.3-1-.3-1.5 0L25 55.2v-7.1h7.4v7.1l-3-1.7zm-13-5.2v-3.7c0-2.5 2-4.5 4.5-4.5H74c-1.6 3.9-1.6 8.1.2 12.6H35.4v-5.1h13.5c.8 0 1.5-.7 1.5-1.5s-.7-1.5-1.5-1.5H20.3c-.8 0-1.5.7-1.5 1.5s.7 1.5 1.5 1.5H22v5.1h-1.4c-2.3 0-4.2-2-4.2-4.4zM3 63.9v-3.7c0-2.5 2-4.5 4.5-4.5H22v1.9c0 .5.3 1 .7 1.3.2.1.5.2.8.2.3 0 .5-.1.7-.2l4.4-2.5 4.4 2.5c.5.3 1 .3 1.5 0s.7-.8.7-1.3v-1.9h25.4c-1.7 3.9-1.7 8.1-.1 12.6h-53C5 68.4 3 66.4 3 63.9zm30.4 23.9l-2.1-1.6c-.3-.2-.6-.3-.9-.3s-.6.1-.9.3l-2.1 1.6v-8.5h5.9c.1 0 .1 8.5.1 8.5zm3-8.5h5c.8 0 1.5-.7 1.5-1.5s-.7-1.5-1.5-1.5H20.3c-.8 0-1.5.7-1.5 1.5s.7 1.5 1.5 1.5h4.2v4.8h-3.6c-2.5 0-4.5-2-4.5-4.5v-3.7c0-2.5 2-4.5 4.5-4.5h53.3c-1.7 3.9-1.8 8.1-.1 12.7H36.4v-4.8z"/><path class="st0" d="M51.9 18c1.4.3 2.5 1.5 2.7 2.9.1.7.8 1.3 1.5 1.3h.2c.8-.1 1.4-.9 1.3-1.7-.4-2.7-2.4-4.8-5-5.4-.8-.2-1.6.3-1.8 1.1-.2.8.3 1.6 1.1 1.8z"/></svg>