<svg xmlns="http://www.w3.org/2000/svg" viewBox="0 0 59.3 90"><path d="M31.5 34.9c-.3-.6-.3-1.4.1-2L50.4 3.8H27.8L5.1 45.7h19.2c.6 0 1.1.3 1.5.7.4.5.5 1.1.3 1.6l-8 32 35.3-44.1H33.2c-.7 0-1.4-.4-1.7-1z" fill="none"/><path d="M59.1 33.1c-.3-.7-1-1.1-1.7-1.1H36.7L55.5 3c.4-.6.4-1.3.1-2-.3-.6-1-1-1.7-1H26.6c-.7 0-1.3.4-1.7 1L.2 46.7c-.3.6-.3 1.3 0 1.9.3.6 1 .9 1.6.9h20l-9.6 38.1c-.2.9.2 1.8 1 2.2.3.1.6.2.9.2.6 0 1.1-.3 1.5-.7l43.3-54.1c.5-.6.5-1.4.2-2.1zM18.1 80l8.1-31.9c.1-.6 0-1.2-.3-1.6-.4-.5-.9-.7-1.5-.7H5.1l22.7-42h22.6L31.6 32.9c-.4.6-.4 1.3-.1 2s1 1 1.7 1h20.2L18.1 80z" fill="#04a2db"/></svg>