<svg xmlns="http://www.w3.org/2000/svg" viewBox="0 0 66.6 62.2"><path d="M33.3 44.8c-4.8 0-8.7 3.9-8.7 8.7 0 4.8 3.9 8.7 8.7 8.7s8.7-3.9 8.7-8.7-3.9-8.7-8.7-8.7zm0 14.1c-3 0-5.4-2.4-5.4-5.4s2.4-5.4 5.4-5.4 5.4 2.4 5.4 5.4-2.4 5.4-5.4 5.4zm24.6-24.7c-1.5 0-2.9.4-4.1 1L41.8 20c2.1-2.1 3.3-5 3.3-8.2C45.1 5.3 39.8 0 33.3 0S21.5 5.3 21.5 11.8c0 3.1 1.2 6 3.3 8.1L12.7 35.2c-1.2-.6-2.6-1-4-1-4.8 0-8.7 3.9-8.7 8.7 0 4.8 3.9 8.7 8.7 8.7s8.7-3.9 8.7-8.7c0-2.2-.8-4.1-2.1-5.7l12.1-15.3c1.7 1 3.8 1.6 5.9 1.6 2.1 0 4.1-.6 5.8-1.5l12.1 15.3c-1.3 1.5-2 3.5-2 5.6 0 4.8 3.9 8.7 8.7 8.7s8.7-3.9 8.7-8.7c.1-4.8-3.9-8.7-8.7-8.7zM8.7 48.3c-3 0-5.4-2.4-5.4-5.4s2.4-5.4 5.4-5.4 5.4 2.4 5.4 5.4c0 3-2.5 5.4-5.4 5.4zm16.1-36.5c0-4.7 3.8-8.5 8.5-8.5s8.5 3.8 8.5 8.5-3.8 8.5-8.5 8.5-8.5-3.8-8.5-8.5zm33.1 36.5c-3 0-5.4-2.4-5.4-5.4s2.4-5.4 5.4-5.4 5.4 2.4 5.4 5.4c0 3-2.4 5.4-5.4 5.4zm-26.3-9.7h3.3v3.3h-3.3v-3.3zm0-6.1h3.3v3.3h-3.3v-3.3zm3.4-2.8h-3.3v-3.3H35v3.3z" fill="#04a2db"/></svg>