<svg fill="#04A2DB" xmlns="http://www.w3.org/2000/svg" viewBox="0 0 56 43"><g fill="#04A2DB" fill-rule="evenodd"><path d="M34 31a6 6 0 1 0-12 0 6 6 0 0 0 12 0zm-8 0a2 2 0 1 1 4 0 2 2 0 0 1-4 0z"/><path d="M40.012 20.564a2 2 0 0 0-2.94-2.712l-7.888 8.55a2 2 0 0 0 2.94 2.712l7.888-8.55zM54 43a2 2 0 1 0 0-4H2a2 2 0 1 0 0 4h52zM26 7a2 2 0 1 0 4 0V2a2 2 0 1 0-4 0v5zM8.813 19.232a2 2 0 1 0 2-3.464l-4.33-2.5a2 2 0 1 0-2 3.464l4.33 2.5zM45.187 15.768a2 2 0 1 0 2 3.464l4.33-2.5a2 2 0 1 0-2-3.464l-4.33 2.5zM15.768 10.813a2 2 0 1 0 3.464-2l-2.5-4.33a2 2 0 1 0-3.464 2l2.5 4.33zM36.768 8.813a2 2 0 1 0 3.464 2l2.5-4.33a2 2 0 1 0-3.464-2l-2.5 4.33zM49 26a2 2 0 1 0 0 4h5a2 2 0 1 0 0-4h-5zM2 26a2 2 0 1 0 0 4h5a2 2 0 1 0 0-4H2z"/></g></svg>