<svg fill="#FFF" xmlns="http://www.w3.org/2000/svg" viewBox="0 0 56.7 56.7"><path fill="none" stroke="#FFF" stroke-width="2" stroke-linecap="round" stroke-linejoin="round" stroke-miterlimit="10" d="M22.9 41.8l-8 8c-2.2 2.2-5.8 2.2-8 0s-2.2-5.8 0-8l8-8c.8.8 2.2.8 3 0s.8-2.2 0-3l2-2 8 8-2 2c-.8-.8-2.2-.8-3 0s-.8 2.2 0 3zM17.9 38.8l-7 7 7-7zM23.1 15.9c.8-2.8 0-6-2.2-8.2A8.58 8.58 0 0 0 11.2 6l5.7 5.7c1.1 1.1 1.1 2.9 0 4s-2.9 1.1-4 0L7.2 10c-1.5 3.2-1 7.1 1.7 9.7 2.2 2.2 5.4 3 8.2 2.2l7.8 7.8 6-6-7.8-7.8zM40.8 33.6L33 25.8l-6 6 7.8 7.8c-.8 2.8 0 6 2.2 8.2 2.6 2.6 6.5 3.2 9.7 1.7L41 43.8c-1.1-1.1-1.1-2.9 0-4s2.9-1.1 4 0l5.7 5.7c1.5-3.2 1-7.1-1.7-9.7-2.2-2.3-5.4-3-8.2-2.2zM25 33.7l-2-1.9h0z"/><path fill="none" stroke="#FFF" stroke-width="2" stroke-linecap="round" stroke-linejoin="round" stroke-miterlimit="10" d="M24.9 33.8l-2-2L40 14.7l1-3 4-4 4 4-4 4-3 1z"/></svg>