<svg fill="#04A2DB" xmlns="http://www.w3.org/2000/svg" viewBox="0 0 60 60"><path d="M51.048 23.565c2.525-2.528 3.528-6.256 2.62-9.73l-.442-1.689-6.104 6.117-4.07-1-.998-4.08 6.1-6.114-1.682-.441a10.123 10.123 0 0 0-9.716 2.625 10.091 10.091 0 0 0-2.644 9.64l-2.936 2.943a4.152 4.152 0 0 1-1.596-2.742l-.045-.334-10.36-10.396c-2.985-2.996-7.822-3.158-10.782-.36A7.579 7.579 0 0 0 6 13.443a7.576 7.576 0 0 0 2.224 5.505l10.558 10.594.336.045c1.086.146 2.052.747 2.712 1.612l-2.874 2.88c-3.451-.878-7.09.11-9.624 2.65-2.525 2.529-3.528 6.257-2.62 9.73l.442 1.69 6.104-6.117 4.07 1 .998 4.081-6.1 6.114 1.682.441a10.123 10.123 0 0 0 9.716-2.625 10.098 10.098 0 0 0 2.644-9.642l5.3-5.31 8.9 8.98.98 3.505 8.17 5.417 4.283-4.296-5.396-8.193-3.49-.983-8.902-8.983 5.31-5.32c3.453.88 7.09-.112 9.624-2.652zm-3.802 19.66l4.09 6.212-1.976 1.983-6.185-4.1-.92-3.289-9.272-9.355 1.718-1.723 9.265 9.35 3.28.923zM19.733 27.662L9.643 17.535A5.59 5.59 0 0 1 8 13.473a5.597 5.597 0 0 1 1.767-4.015c2.179-2.059 5.764-1.917 7.99.318l9.897 9.93a6.16 6.16 0 0 0 2.1 3.554l-6.488 6.5a6.163 6.163 0 0 0-3.533-2.099zm14.973 2.456l-.001-.002-1.702 1.708-8.994 9.01.184.58a8.11 8.11 0 0 1-1.984 8.217c-1.577 1.58-3.75 2.408-5.93 2.366l4.258-4.267-1.553-6.351-6.344-1.558-4.254 4.263a8.151 8.151 0 0 1 2.362-5.942 8.07 8.07 0 0 1 8.196-1.988l.581.186L36.372 19.46l-.184-.58a8.109 8.109 0 0 1 1.983-8.216c1.578-1.58 3.758-2.395 5.93-2.366l-4.257 4.266 1.553 6.353 6.344 1.556 4.254-4.263a8.151 8.151 0 0 1-2.362 5.942 8.072 8.072 0 0 1-8.196 1.989l-.582-.186-6.149 6.16z"/><path d="M25.948 32.982l1.329-1.331 1.415 1.412-1.329 1.331zM29.19 29.735l1.328-1.331 1.415 1.412-1.329 1.331zM32.43 26.488l1.33-1.331 1.414 1.412-1.329 1.331zM14.412 12.88l1.416-1.41 9.555 9.586-1.417 1.412zM11.516 15.786l1.416-1.411 9.555 9.586-1.417 1.412z"/></svg>