<svg fill="#FFF" xmlns="http://www.w3.org/2000/svg" viewBox="0 0 512 512"><path d="M510 26.6C510 13 499 2 485.4 2H26.6C13 2 2 13 2 26.6c0 10.7 6.9 19.7 16.4 23.1v312.9h229.4v45.6l-95.7 87.7 11.1 12.1 84.6-77.5V510h16.4v-79.7l84.6 77.5 11.1-12.1-95.7-87.7v-45.6h229.4V49.7c9.5-3.4 16.4-12.5 16.4-23.1zm-32.8 319.5H34.8V149.5h24.6v-16.4H34.8v-16.4H84v-16.4H34.8V83.9h73.7V67.5H34.8V51.2h442.5v294.9zm8.2-311.3H26.6c-4.5 0-8.2-3.7-8.2-8.2s3.7-8.2 8.2-8.2h458.8c4.5 0 8.2 3.7 8.2 8.2s-3.7 8.2-8.2 8.2z"/><path d="M198.6 215h-49.2v98.3h49.2V215zm-16.3 82h-16.4v-65.5h16.4V297zM280.6 133.1h-49.2v180.3h49.2V133.1zM264.2 297h-16.4V149.5h16.4V297zM362.5 165.9h-49.2v147.5h49.2V165.9zM346.1 297h-16.4V182.3h16.4V297zM444.5 83.9h-49.2v229.4h49.2V83.9zM428.1 297h-16.4V100.3h16.4V297z"/></svg>